<svg version="1.1" xmlns="http://www.w3.org/2000/svg" viewBox="0 0 48 48" xml:space="preserve">
<path fill="#FFFFFF" d="M48,9.315c-1.765,0.771-3.665,1.295-5.655,1.529c2.033-1.204,3.594-3.107,4.332-5.375
	c-1.904,1.111-4.013,1.921-6.255,2.356c-1.796-1.889-4.356-3.067-7.189-3.067c-5.44,0-9.847,4.352-9.847,9.714
	c0,0.761,0.085,1.505,0.254,2.216C15.456,16.281,8.198,12.414,3.343,6.534C2.492,7.971,2.009,9.64,2.009,11.419
	c0,3.372,1.739,6.347,4.378,8.088c-1.613-0.051-3.131-0.488-4.46-1.218c0,0.042,0,0.081,0,0.124c0,4.705,3.396,8.633,7.9,9.523
	c-0.824,0.223-1.696,0.344-2.593,0.344c-0.635,0-1.251-0.061-1.854-0.174c1.256,3.859,4.892,6.668,9.202,6.746
	C11.21,37.461,6.964,39.01,2.35,39.01c-0.797,0-1.583-0.041-2.35-0.133c4.357,2.756,9.532,4.365,15.093,4.365
	c18.114,0,28.023-14.807,28.023-27.644c0-0.421-0.012-0.839-0.029-1.256C45.013,12.973,46.681,11.261,48,9.315L48,9.315z"/>
</svg>
